<?xml version="1.0" encoding="UTF-8" standalone="no"?>
<svg
   xmlns:dc="http://purl.org/dc/elements/1.1/"
   xmlns:cc="http://creativecommons.org/ns#"
   xmlns:rdf="http://www.w3.org/1999/02/22-rdf-syntax-ns#"
   xmlns:svg="http://www.w3.org/2000/svg"
   xmlns="http://www.w3.org/2000/svg"
   xmlns:sodipodi="http://sodipodi.sourceforge.net/DTD/sodipodi-0.dtd"
   xmlns:inkscape="http://www.inkscape.org/namespaces/inkscape"
   height="626.69995mm"
   viewBox="0 0 761.26 626.69996"
   width="761.26001mm"
   version="1.1"
   id="svg883"
   sodipodi:docname="towzone29old.svg"
   inkscape:version="1.0.1 (3bc2e813f5, 2020-09-07)">
  <g
     id="g919"
     transform="translate(0,0.550428)">
    <g
       id="p-1"
       style="fill:none;stroke:#000000;stroke-width:1;stroke-linecap:round;stroke-linejoin:round;stroke-miterlimit:4;stroke-dasharray:none;stroke-opacity:1"
       transform="translate(-533.82951,261.8695)">
      <path
         d="m 774.89,363.78 h 42.985 c 0.072,0 0.13,-0.058 0.13,-0.13 v -2.87 c 0,-0.13 -0.13,0 0,0 h 35.77 c 0.13,0 0,-0.13 0,0 v 2.87 c 0,0.072 0.058,0.13 0.13,0.13 h 35.97 c 0.072,0 0.13,-0.058 0.13,-0.13 v -2.87 c 0,-0.13 -0.13,0 0,0 h 35.77 c 0.13,0 0,-0.13 0,0 v 2.87 c 0,0.072 0.058,0.13 0.13,0.13 h 42.985 c 0.072,0 0.13,-0.058 0.13,-0.13 v -3 -34.5 -34.5 -3 c 0,-0.072 -0.058,-0.13 -0.13,-0.13 h -42.985 c -0.072,0 -0.13,0.058 -0.13,0.13 v 2.87 c 0,0.13 0.13,0 0,0 h -35.77 c -0.13,0 0,0.13 0,0 v -2.87 c 0,-0.072 -0.058,-0.13 -0.13,-0.13 h -35.97 c -0.072,0 -0.13,0.058 -0.13,0.13 v 2.87 c 0,0.13 0.13,0 0,0 h -35.77 c -0.13,0 0,0.13 0,0 v -2.87 c 0,-0.072 -0.058,-0.13 -0.13,-0.13 H 774.89 c -0.072,0 -0.13,0.058 -0.13,0.13 v 3 34.5 34.5 3 c 0,0.072 0.058,0.13 0.13,0.13 z"
         stroke="#000000"
         stroke-width="0.26"
         id="path868"
         style="stroke:#000000;stroke-width:1;stroke-miterlimit:4;stroke-dasharray:none;stroke-opacity:1" />
    </g>
    <g
       id="p-2"
       style="fill:none;stroke:#000000;stroke-width:1;stroke-linecap:round;stroke-linejoin:round;stroke-miterlimit:4;stroke-dasharray:none;stroke-opacity:1"
       transform="translate(-774.26,338.6295)">
      <path
         d="m 774.89,287.02 h 42.985 c 0.072,0 0.13,-0.058 0.13,-0.13 v -2.87 c 0,-0.13 -0.13,0 0,0 h 35.77 c 0.13,0 0,-0.13 0,0 v 2.87 c 0,0.072 0.058,0.13 0.13,0.13 h 35.97 c 0.072,0 0.13,-0.058 0.13,-0.13 v -2.87 c 0,-0.13 -0.13,0 0,0 h 35.77 c 0.13,0 0,-0.13 0,0 v 2.87 c 0,0.072 0.058,0.13 0.13,0.13 h 42.985 c 0.072,0 0.13,-0.058 0.13,-0.13 v -3 -34.5 -34.5 -3 c 0,-0.072 -0.058,-0.13 -0.13,-0.13 h -42.985 c -0.072,0 -0.13,0.058 -0.13,0.13 v 2.87 c 0,0.13 0.13,0 0,0 h -35.77 c -0.13,0 0,0.13 0,0 v -2.87 c 0,-0.072 -0.058,-0.13 -0.13,-0.13 h -35.97 c -0.072,0 -0.13,0.058 -0.13,0.13 v 2.87 c 0,0.13 0.13,0 0,0 h -35.77 c -0.13,0 0,0.13 0,0 v -2.87 c 0,-0.072 -0.058,-0.13 -0.13,-0.13 H 774.89 c -0.072,0 -0.13,0.058 -0.13,0.13 v 3 34.5 34.5 3 c 0,0.072 0.058,0.13 0.13,0.13 z"
         stroke="#000000"
         stroke-width="0.26"
         id="path871"
         style="stroke:#000000;stroke-width:1;stroke-miterlimit:4;stroke-dasharray:none;stroke-opacity:1" />
    </g>
    <g
       id="p-2-2"
       style="fill:none;stroke:#000000;stroke-width:1;stroke-linecap:round;stroke-linejoin:round;stroke-miterlimit:4;stroke-dasharray:none;stroke-opacity:1"
       transform="translate(-340.2153,338.6295)">
      <path
         d="m 774.89,287.02 h 42.985 c 0.072,0 0.13,-0.058 0.13,-0.13 v -2.87 c 0,-0.13 -0.13,0 0,0 h 35.77 c 0.13,0 0,-0.13 0,0 v 2.87 c 0,0.072 0.058,0.13 0.13,0.13 h 35.97 c 0.072,0 0.13,-0.058 0.13,-0.13 v -2.87 c 0,-0.13 -0.13,0 0,0 h 35.77 c 0.13,0 0,-0.13 0,0 v 2.87 c 0,0.072 0.058,0.13 0.13,0.13 h 42.985 c 0.072,0 0.13,-0.058 0.13,-0.13 v -3 -34.5 -34.5 -3 c 0,-0.072 -0.058,-0.13 -0.13,-0.13 h -42.985 c -0.072,0 -0.13,0.058 -0.13,0.13 v 2.87 c 0,0.13 0.13,0 0,0 h -35.77 c -0.13,0 0,0.13 0,0 v -2.87 c 0,-0.072 -0.058,-0.13 -0.13,-0.13 h -35.97 c -0.072,0 -0.13,0.058 -0.13,0.13 v 2.87 c 0,0.13 0.13,0 0,0 h -35.77 c -0.13,0 0,0.13 0,0 v -2.87 c 0,-0.072 -0.058,-0.13 -0.13,-0.13 H 774.89 c -0.072,0 -0.13,0.058 -0.13,0.13 v 3 34.5 34.5 3 c 0,0.072 0.058,0.13 0.13,0.13 z"
         stroke="#000000"
         stroke-width="0.26"
         id="path871-6"
         style="stroke:#000000;stroke-width:1;stroke-miterlimit:4;stroke-dasharray:none;stroke-opacity:1" />
    </g>
  </g>
  <defs
     id="defs887" />
  <sodipodi:namedview
     pagecolor="#ffffff"
     bordercolor="#666666"
     borderopacity="1"
     objecttolerance="10"
     gridtolerance="10"
     guidetolerance="10"
     inkscape:pageopacity="0"
     inkscape:pageshadow="2"
     inkscape:window-width="1280"
     inkscape:window-height="698"
     id="namedview885"
     showgrid="false"
     inkscape:zoom="0.11719071"
     inkscape:cx="1432.1931"
     inkscape:cy="1631.4757"
     inkscape:window-x="-6"
     inkscape:window-y="-6"
     inkscape:window-maximized="1"
     inkscape:current-layer="svg883" />
  <!--
ClosedBox - Fully closed box


This box is more of a building block than a finished item.
Use a vector graphics program (like Inkscape) to add holes or adjust the base
plate.

See BasedBox for variant with a base.


Created with Boxes.py (https://festi.info/boxes.py)
Creation date: 2021-12-30 22:01:57
Command line (remove spaces between dashes): boxes ClosedBox - -FingerJoint_angle=90.0 - -FingerJoint_style=rectangular - -FingerJoint_surroundingspaces=2 - -FingerJoint_edge_width=1.0 - -FingerJoint_finger=12 - -FingerJoint_play=0.01 - -FingerJoint_space=12 - -FingerJoint_width=12 - -x=760 - -y=200 - -h=75 - -outside=0 - -outside=1 - -thickness=3.0 - -format=svg - -tabs=0.0 - -debug=0 - -labels=0 - -reference=0 - -burn=0.13
Url: http://www.festi.info/ClosedBox?FingerJoint_angle=90.0&FingerJoint_style=rectangular&FingerJoint_surroundingspaces=2&FingerJoint_edge_width=1.0&FingerJoint_finger=12&FingerJoint_play=0.01&FingerJoint_space=12&FingerJoint_width=12&x=760&y=200&h=75&outside=0&outside=1&thickness=3.0&format=svg&tabs=0.0&debug=0&labels=0&reference=0&burn=0.13&render=1
SettingsUrl: http://www.festi.info/ClosedBox?FingerJoint_angle=90.0&FingerJoint_style=rectangular&FingerJoint_surroundingspaces=2&FingerJoint_edge_width=1.0&FingerJoint_finger=12&FingerJoint_play=0.01&FingerJoint_space=12&FingerJoint_width=12&x=760&y=200&h=75&outside=0&outside=1&thickness=3.0&format=svg&tabs=0.0&debug=0&labels=0&reference=0&burn=0.13
-->
  <title
     id="title861">ClosedBox</title>
  <metadata
     id="metadata863">
    <rdf:RDF>
      <cc:Work>
        <dc:title>ClosedBox</dc:title>
        <dc:date>2021-12-30 22:01:57</dc:date>
        <dc:source>http://www.festi.info/ClosedBox?FingerJoint_angle=90.0&amp;FingerJoint_style=rectangular&amp;FingerJoint_surroundingspaces=2&amp;FingerJoint_edge_width=1.0&amp;FingerJoint_finger=12&amp;FingerJoint_play=0.01&amp;FingerJoint_space=12&amp;FingerJoint_width=12&amp;x=760&amp;y=200&amp;h=75&amp;outside=0&amp;outside=1&amp;thickness=3.0&amp;format=svg&amp;tabs=0.0&amp;debug=0&amp;labels=0&amp;reference=0&amp;burn=0.13&amp;render=1</dc:source>
        <dc:description>Fully closed box

This box is more of a building block than a finished item.
Use a vector graphics program (like Inkscape) to add holes or adjust the base
plate.

See BasedBox for variant with a base.

Created with Boxes.py (https://festi.info/boxes.py)
Command line: boxes ClosedBox --FingerJoint_angle=90.0 --FingerJoint_style=rectangular --FingerJoint_surroundingspaces=2 --FingerJoint_edge_width=1.0 --FingerJoint_finger=12 --FingerJoint_play=0.01 --FingerJoint_space=12 --FingerJoint_width=12 --x=760 --y=200 --h=75 --outside=0 --outside=1 --thickness=3.0 --format=svg --tabs=0.0 --debug=0 --labels=0 --reference=0 --burn=0.13
Url: http://www.festi.info/ClosedBox?FingerJoint_angle=90.0&amp;FingerJoint_style=rectangular&amp;FingerJoint_surroundingspaces=2&amp;FingerJoint_edge_width=1.0&amp;FingerJoint_finger=12&amp;FingerJoint_play=0.01&amp;FingerJoint_space=12&amp;FingerJoint_width=12&amp;x=760&amp;y=200&amp;h=75&amp;outside=0&amp;outside=1&amp;thickness=3.0&amp;format=svg&amp;tabs=0.0&amp;debug=0&amp;labels=0&amp;reference=0&amp;burn=0.13&amp;render=1
SettingsUrl: http://www.festi.info/ClosedBox?FingerJoint_angle=90.0&amp;FingerJoint_style=rectangular&amp;FingerJoint_surroundingspaces=2&amp;FingerJoint_edge_width=1.0&amp;FingerJoint_finger=12&amp;FingerJoint_play=0.01&amp;FingerJoint_space=12&amp;FingerJoint_width=12&amp;x=760&amp;y=200&amp;h=75&amp;outside=0&amp;outside=1&amp;thickness=3.0&amp;format=svg&amp;tabs=0.0&amp;debug=0&amp;labels=0&amp;reference=0&amp;burn=0.13
</dc:description>
        <dc:format>image/svg+xml</dc:format>
        <dc:type
           rdf:resource="http://purl.org/dc/dcmitype/StillImage" />
      </cc:Work>
    </rdf:RDF>
  </metadata>
  <g
     id="p-0"
     style="fill:none;stroke:#000000;stroke-width:1;stroke-linecap:round;stroke-linejoin:round;stroke-miterlimit:4;stroke-dasharray:none;stroke-opacity:1"
     transform="translate(-9.5,186.71359)">
    <path
       d="m 13.13,363.78 h 70.985 c 0.072,0 0.13,-0.058 0.13,-0.13 v -2.87 c 0,-0.13 -0.13,0 0,0 h 35.77 c 0.13,0 0,-0.13 0,0 v 2.87 c 0,0.072 0.058,0.13 0.13,0.13 h 35.97 c 0.072,0 0.13,-0.058 0.13,-0.13 v -2.87 c 0,-0.13 -0.13,0 0,0 h 35.77 c 0.13,0 0,-0.13 0,0 v 2.87 c 0,0.072 0.058,0.13 0.13,0.13 h 35.97 c 0.072,0 0.13,-0.058 0.13,-0.13 v -2.87 c 0,-0.13 -0.13,0 0,0 h 35.77 c 0.13,0 0,-0.13 0,0 v 2.87 c 0,0.072 0.058,0.13 0.13,0.13 h 35.97 c 0.072,0 0.13,-0.058 0.13,-0.13 v -2.87 c 0,-0.13 -0.13,0 0,0 h 35.77 c 0.13,0 0,-0.13 0,0 v 2.87 c 0,0.072 0.058,0.13 0.13,0.13 h 35.97 c 0.072,0 0.13,-0.058 0.13,-0.13 v -2.87 c 0,-0.13 -0.13,0 0,0 h 35.77 c 0.13,0 0,-0.13 0,0 v 2.87 c 0,0.072 0.058,0.13 0.13,0.13 h 35.97 c 0.072,0 0.13,-0.058 0.13,-0.13 v -2.87 c 0,-0.13 -0.13,0 0,0 h 35.77 c 0.13,0 0,-0.13 0,0 v 2.87 c 0,0.072 0.058,0.13 0.13,0.13 h 35.97 c 0.072,0 0.13,-0.058 0.13,-0.13 v -2.87 c 0,-0.13 -0.13,0 0,0 h 35.77 c 0.13,0 0,-0.13 0,0 v 2.87 c 0,0.072 0.058,0.13 0.13,0.13 h 35.97 c 0.072,0 0.13,-0.058 0.13,-0.13 v -2.87 c 0,-0.13 -0.13,0 0,0 h 35.77 c 0.13,0 0,-0.13 0,0 v 2.87 c 0,0.072 0.058,0.13 0.13,0.13 h 35.97 c 0.072,0 0.13,-0.058 0.13,-0.13 v -2.87 c 0,-0.13 -0.13,0 0,0 h 35.77 c 0.13,0 0,-0.13 0,0 v 2.87 c 0,0.072 0.058,0.13 0.13,0.13 h 70.985 3 c 0.072,0 0.13,-0.058 0.13,-0.13 v -3 -34.485 -34.485 -3 c 0,-0.072 -0.058,-0.13 -0.13,-0.13 h -3 -70.985 c -0.072,0 -0.13,0.058 -0.13,0.13 v 2.87 c 0,0.13 0.13,0 0,0 h -35.77 c -0.13,0 0,0.13 0,0 v -2.87 c 0,-0.072 -0.058,-0.13 -0.13,-0.13 h -35.97 c -0.072,0 -0.13,0.058 -0.13,0.13 v 2.87 c 0,0.13 0.13,0 0,0 h -35.77 c -0.13,0 0,0.13 0,0 v -2.87 c 0,-0.072 -0.058,-0.13 -0.13,-0.13 h -35.97 c -0.072,0 -0.13,0.058 -0.13,0.13 v 2.87 c 0,0.13 0.13,0 0,0 h -35.77 c -0.13,0 0,0.13 0,0 v -2.87 c 0,-0.072 -0.058,-0.13 -0.13,-0.13 h -35.97 c -0.072,0 -0.13,0.058 -0.13,0.13 v 2.87 c 0,0.13 0.13,0 0,0 h -35.77 c -0.13,0 0,0.13 0,0 v -2.87 c 0,-0.072 -0.058,-0.13 -0.13,-0.13 h -35.97 c -0.072,0 -0.13,0.058 -0.13,0.13 v 2.87 c 0,0.13 0.13,0 0,0 h -35.77 c -0.13,0 0,0.13 0,0 v -2.87 c 0,-0.072 -0.058,-0.13 -0.13,-0.13 h -35.97 c -0.072,0 -0.13,0.058 -0.13,0.13 v 2.87 c 0,0.13 0.13,0 0,0 h -35.77 c -0.13,0 0,0.13 0,0 v -2.87 c 0,-0.072 -0.058,-0.13 -0.13,-0.13 h -35.97 c -0.072,0 -0.13,0.058 -0.13,0.13 v 2.87 c 0,0.13 0.13,0 0,0 h -35.77 c -0.13,0 0,0.13 0,0 v -2.87 c 0,-0.072 -0.058,-0.13 -0.13,-0.13 h -35.97 c -0.072,0 -0.13,0.058 -0.13,0.13 v 2.87 c 0,0.13 0.13,0 0,0 h -35.77 c -0.13,0 0,0.13 0,0 v -2.87 c 0,-0.072 -0.058,-0.13 -0.13,-0.13 h -35.97 c -0.072,0 -0.13,0.058 -0.13,0.13 v 2.87 c 0,0.13 0.13,0 0,0 h -35.77 c -0.13,0 0,0.13 0,0 v -2.87 c 0,-0.072 -0.058,-0.13 -0.13,-0.13 h -70.985 -3 c -0.072,0 -0.13,0.058 -0.13,0.13 v 3 34.485 34.485 3 c 0,0.072 0.058,0.13 0.13,0.13 z"
       stroke="#000000"
       stroke-width="0.26"
       id="path865"
       style="stroke:#000000;stroke-width:1;stroke-miterlimit:4;stroke-dasharray:none;stroke-opacity:1" />
  </g>
  <g
     id="p-3"
     style="fill:none;stroke:#000000;stroke-width:1;stroke-linecap:round;stroke-linejoin:round;stroke-miterlimit:4;stroke-dasharray:none;stroke-opacity:1"
     transform="translate(-9.5,187.52688)">
    <path
       d="m 13.13,287.02 h 70.985 c 0.072,0 0.13,-0.058 0.13,-0.13 v -2.87 c 0,-0.13 -0.13,0 0,0 h 35.77 c 0.13,0 0,-0.13 0,0 v 2.87 c 0,0.072 0.058,0.13 0.13,0.13 h 35.97 c 0.072,0 0.13,-0.058 0.13,-0.13 v -2.87 c 0,-0.13 -0.13,0 0,0 h 35.77 c 0.13,0 0,-0.13 0,0 v 2.87 c 0,0.072 0.058,0.13 0.13,0.13 h 35.97 c 0.072,0 0.13,-0.058 0.13,-0.13 v -2.87 c 0,-0.13 -0.13,0 0,0 h 35.77 c 0.13,0 0,-0.13 0,0 v 2.87 c 0,0.072 0.058,0.13 0.13,0.13 h 35.97 c 0.072,0 0.13,-0.058 0.13,-0.13 v -2.87 c 0,-0.13 -0.13,0 0,0 h 35.77 c 0.13,0 0,-0.13 0,0 v 2.87 c 0,0.072 0.058,0.13 0.13,0.13 h 35.97 c 0.072,0 0.13,-0.058 0.13,-0.13 v -2.87 c 0,-0.13 -0.13,0 0,0 h 35.77 c 0.13,0 0,-0.13 0,0 v 2.87 c 0,0.072 0.058,0.13 0.13,0.13 h 35.97 c 0.072,0 0.13,-0.058 0.13,-0.13 v -2.87 c 0,-0.13 -0.13,0 0,0 h 35.77 c 0.13,0 0,-0.13 0,0 v 2.87 c 0,0.072 0.058,0.13 0.13,0.13 h 35.97 c 0.072,0 0.13,-0.058 0.13,-0.13 v -2.87 c 0,-0.13 -0.13,0 0,0 h 35.77 c 0.13,0 0,-0.13 0,0 v 2.87 c 0,0.072 0.058,0.13 0.13,0.13 h 35.97 c 0.072,0 0.13,-0.058 0.13,-0.13 v -2.87 c 0,-0.13 -0.13,0 0,0 h 35.77 c 0.13,0 0,-0.13 0,0 v 2.87 c 0,0.072 0.058,0.13 0.13,0.13 h 35.97 c 0.072,0 0.13,-0.058 0.13,-0.13 v -2.87 c 0,-0.13 -0.13,0 0,0 h 35.77 c 0.13,0 0,-0.13 0,0 v 2.87 c 0,0.072 0.058,0.13 0.13,0.13 h 70.985 3 c 0.072,0 0.13,-0.058 0.13,-0.13 v -3 -34.485 -34.485 -3 c 0,-0.072 -0.058,-0.13 -0.13,-0.13 h -3 -70.985 c -0.072,0 -0.13,0.058 -0.13,0.13 v 2.87 c 0,0.13 0.13,0 0,0 h -35.77 c -0.13,0 0,0.13 0,0 v -2.87 c 0,-0.072 -0.058,-0.13 -0.13,-0.13 h -35.97 c -0.072,0 -0.13,0.058 -0.13,0.13 v 2.87 c 0,0.13 0.13,0 0,0 h -35.77 c -0.13,0 0,0.13 0,0 v -2.87 c 0,-0.072 -0.058,-0.13 -0.13,-0.13 h -35.97 c -0.072,0 -0.13,0.058 -0.13,0.13 v 2.87 c 0,0.13 0.13,0 0,0 h -35.77 c -0.13,0 0,0.13 0,0 v -2.87 c 0,-0.072 -0.058,-0.13 -0.13,-0.13 h -35.97 c -0.072,0 -0.13,0.058 -0.13,0.13 v 2.87 c 0,0.13 0.13,0 0,0 h -35.77 c -0.13,0 0,0.13 0,0 v -2.87 c 0,-0.072 -0.058,-0.13 -0.13,-0.13 h -35.97 c -0.072,0 -0.13,0.058 -0.13,0.13 v 2.87 c 0,0.13 0.13,0 0,0 h -35.77 c -0.13,0 0,0.13 0,0 v -2.87 c 0,-0.072 -0.058,-0.13 -0.13,-0.13 h -35.97 c -0.072,0 -0.13,0.058 -0.13,0.13 v 2.87 c 0,0.13 0.13,0 0,0 h -35.77 c -0.13,0 0,0.13 0,0 v -2.87 c 0,-0.072 -0.058,-0.13 -0.13,-0.13 h -35.97 c -0.072,0 -0.13,0.058 -0.13,0.13 v 2.87 c 0,0.13 0.13,0 0,0 h -35.77 c -0.13,0 0,0.13 0,0 v -2.87 c 0,-0.072 -0.058,-0.13 -0.13,-0.13 h -35.97 c -0.072,0 -0.13,0.058 -0.13,0.13 v 2.87 c 0,0.13 0.13,0 0,0 h -35.77 c -0.13,0 0,0.13 0,0 v -2.87 c 0,-0.072 -0.058,-0.13 -0.13,-0.13 h -35.97 c -0.072,0 -0.13,0.058 -0.13,0.13 v 2.87 c 0,0.13 0.13,0 0,0 h -35.77 c -0.13,0 0,0.13 0,0 v -2.87 c 0,-0.072 -0.058,-0.13 -0.13,-0.13 h -70.985 -3 c -0.072,0 -0.13,0.058 -0.13,0.13 v 3 34.485 34.485 3 c 0,0.072 0.058,0.13 0.13,0.13 z"
       stroke="#000000"
       stroke-width="0.26"
       id="path874"
       style="stroke:#000000;stroke-width:1;stroke-miterlimit:4;stroke-dasharray:none;stroke-opacity:1" />
  </g>
  <g
     id="p-4"
     style="fill:none;stroke:#000000;stroke-width:1;stroke-linecap:round;stroke-linejoin:round;stroke-miterlimit:4;stroke-dasharray:none;stroke-opacity:1"
     transform="translate(-9.5,191.76054)">
    <path
       d="M 13.13,207.26 H 84 c 0.13,0 0,-0.13 0,0 v 2.87 c 0,0.072 0.058,0.13 0.13,0.13 h 36 c 0.072,0 0.13,-0.058 0.13,-0.13 v -2.87 c 0,-0.13 -0.13,0 0,0 H 156 c 0.13,0 0,-0.13 0,0 v 2.87 c 0,0.072 0.058,0.13 0.13,0.13 h 36 c 0.072,0 0.13,-0.058 0.13,-0.13 v -2.87 c 0,-0.13 -0.13,0 0,0 H 228 c 0.13,0 0,-0.13 0,0 v 2.87 c 0,0.072 0.058,0.13 0.13,0.13 h 36 c 0.072,0 0.13,-0.058 0.13,-0.13 v -2.87 c 0,-0.13 -0.13,0 0,0 H 300 c 0.13,0 0,-0.13 0,0 v 2.87 c 0,0.072 0.058,0.13 0.13,0.13 h 36 c 0.072,0 0.13,-0.058 0.13,-0.13 v -2.87 c 0,-0.13 -0.13,0 0,0 H 372 c 0.13,0 0,-0.13 0,0 v 2.87 c 0,0.072 0.058,0.13 0.13,0.13 h 36 c 0.072,0 0.13,-0.058 0.13,-0.13 v -2.87 c 0,-0.13 -0.13,0 0,0 H 444 c 0.13,0 0,-0.13 0,0 v 2.87 c 0,0.072 0.058,0.13 0.13,0.13 h 36 c 0.072,0 0.13,-0.058 0.13,-0.13 v -2.87 c 0,-0.13 -0.13,0 0,0 H 516 c 0.13,0 0,-0.13 0,0 v 2.87 c 0,0.072 0.058,0.13 0.13,0.13 h 36 c 0.072,0 0.13,-0.058 0.13,-0.13 v -2.87 c 0,-0.13 -0.13,0 0,0 H 588 c 0.13,0 0,-0.13 0,0 v 2.87 c 0,0.072 0.058,0.13 0.13,0.13 h 36 c 0.072,0 0.13,-0.058 0.13,-0.13 v -2.87 c 0,-0.13 -0.13,0 0,0 H 660 c 0.13,0 0,-0.13 0,0 v 2.87 c 0,0.072 0.058,0.13 0.13,0.13 h 36 c 0.072,0 0.13,-0.058 0.13,-0.13 v -2.87 c 0,-0.13 -0.13,0 0,0 h 70.87 c 0.072,0 0.13,-0.058 0.13,-0.13 v -42.87 c 0,-0.13 -0.13,0 0,0 h 2.87 c 0.072,0 0.13,-0.058 0.13,-0.13 v -36 c 0,-0.072 -0.058,-0.13 -0.13,-0.13 h -2.87 c -0.13,0 0,0.13 0,0 V 92.26 c 0,-0.13 -0.13,0 0,0 h 2.87 c 0.072,0 0.13,-0.058 0.13,-0.13 v -36 c 0,-0.072 -0.058,-0.13 -0.13,-0.13 h -2.87 c -0.13,0 0,0.13 0,0 V 13.13 c 0,-0.072 -0.058,-0.13 -0.13,-0.13 h -70.87 c -0.13,0 0,0.13 0,0 v -2.87 c 0,-0.072 -0.058,-0.13 -0.13,-0.13 h -36 C 660.058,10 660,10.058 660,10.13 V 13 c 0,0.13 0.13,0 0,0 h -35.74 c -0.13,0 0,0.13 0,0 v -2.87 c 0,-0.072 -0.058,-0.13 -0.13,-0.13 h -36 C 588.058,10 588,10.058 588,10.13 V 13 c 0,0.13 0.13,0 0,0 h -35.74 c -0.13,0 0,0.13 0,0 v -2.87 c 0,-0.072 -0.058,-0.13 -0.13,-0.13 h -36 C 516.058,10 516,10.058 516,10.13 V 13 c 0,0.13 0.13,0 0,0 h -35.74 c -0.13,0 0,0.13 0,0 v -2.87 c 0,-0.072 -0.058,-0.13 -0.13,-0.13 h -36 C 444.058,10 444,10.058 444,10.13 V 13 c 0,0.13 0.13,0 0,0 h -35.74 c -0.13,0 0,0.13 0,0 v -2.87 c 0,-0.072 -0.058,-0.13 -0.13,-0.13 h -36 C 372.058,10 372,10.058 372,10.13 V 13 c 0,0.13 0.13,0 0,0 h -35.74 c -0.13,0 0,0.13 0,0 v -2.87 c 0,-0.072 -0.058,-0.13 -0.13,-0.13 h -36 C 300.058,10 300,10.058 300,10.13 V 13 c 0,0.13 0.13,0 0,0 h -35.74 c -0.13,0 0,0.13 0,0 v -2.87 c 0,-0.072 -0.058,-0.13 -0.13,-0.13 h -36 C 228.058,10 228,10.058 228,10.13 V 13 c 0,0.13 0.13,0 0,0 h -35.74 c -0.13,0 0,0.13 0,0 v -2.87 c 0,-0.072 -0.058,-0.13 -0.13,-0.13 h -36 C 156.058,10 156,10.058 156,10.13 V 13 c 0,0.13 0.13,0 0,0 h -35.74 c -0.13,0 0,0.13 0,0 v -2.87 c 0,-0.072 -0.058,-0.13 -0.13,-0.13 h -36 C 84.058,10 84,10.058 84,10.13 V 13 c 0,0.13 0.13,0 0,0 H 13.13 C 13.058,13 13,13.058 13,13.13 V 56 c 0,0.13 0.13,0 0,0 H 10.13 C 10.058,56 10,56.058 10,56.13 v 36 c 0,0.072 0.058,0.13 0.13,0.13 H 13 c 0.13,0 0,-0.13 0,0 V 128 c 0,0.13 0.13,0 0,0 h -2.87 c -0.072,0 -0.13,0.058 -0.13,0.13 v 36 c 0,0.072 0.058,0.13 0.13,0.13 H 13 c 0.13,0 0,-0.13 0,0 v 42.87 c 0,0.072 0.058,0.13 0.13,0.13 z"
       stroke="#000000"
       stroke-width="0.26"
       id="path877"
       style="stroke:#000000;stroke-width:1;stroke-miterlimit:4;stroke-dasharray:none;stroke-opacity:1" />
  </g>
  <g
     id="p-5"
     style="fill:none;stroke:#000000;stroke-width:1;stroke-linecap:round;stroke-linejoin:round;stroke-miterlimit:4;stroke-dasharray:none;stroke-opacity:1"
     transform="translate(-771.26,-9.5)">
    <path
       d="m 774.89,207.26 h 70.87 c 0.13,0 0,-0.13 0,0 v 2.87 c 0,0.072 0.058,0.13 0.13,0.13 h 36 c 0.072,0 0.13,-0.058 0.13,-0.13 v -2.87 c 0,-0.13 -0.13,0 0,0 h 35.74 c 0.13,0 0,-0.13 0,0 v 2.87 c 0,0.072 0.058,0.13 0.13,0.13 h 36 c 0.072,0 0.13,-0.058 0.13,-0.13 v -2.87 c 0,-0.13 -0.13,0 0,0 h 35.74 c 0.13,0 0,-0.13 0,0 v 2.87 c 0,0.072 0.058,0.13 0.13,0.13 h 36 c 0.072,0 0.13,-0.058 0.13,-0.13 v -2.87 c 0,-0.13 -0.13,0 0,0 h 35.74 c 0.13,0 0,-0.13 0,0 v 2.87 c 0,0.072 0.058,0.13 0.13,0.13 h 36 c 0.072,0 0.13,-0.058 0.13,-0.13 v -2.87 c 0,-0.13 -0.13,0 0,0 h 35.74 c 0.13,0 0,-0.13 0,0 v 2.87 c 0,0.072 0.058,0.13 0.13,0.13 h 36 c 0.072,0 0.13,-0.058 0.13,-0.13 v -2.87 c 0,-0.13 -0.13,0 0,0 h 35.74 c 0.13,0 0,-0.13 0,0 v 2.87 c 0,0.072 0.058,0.13 0.13,0.13 h 36 c 0.072,0 0.13,-0.058 0.13,-0.13 v -2.87 c 0,-0.13 -0.13,0 0,0 h 35.74 c 0.13,0 0,-0.13 0,0 v 2.87 c 0,0.072 0.058,0.13 0.13,0.13 h 36 c 0.072,0 0.13,-0.058 0.13,-0.13 v -2.87 c 0,-0.13 -0.13,0 0,0 h 35.74 c 0.13,0 0,-0.13 0,0 v 2.87 c 0,0.072 0.058,0.13 0.13,0.13 h 36 c 0.072,0 0.13,-0.058 0.13,-0.13 v -2.87 c 0,-0.13 -0.13,0 0,0 h 35.74 c 0.13,0 0,-0.13 0,0 v 2.87 c 0,0.072 0.058,0.13 0.13,0.13 h 36 c 0.072,0 0.13,-0.058 0.13,-0.13 v -2.87 c 0,-0.13 -0.13,0 0,0 h 70.87 c 0.072,0 0.13,-0.058 0.13,-0.13 v -42.87 c 0,-0.13 -0.13,0 0,0 h 2.87 c 0.072,0 0.13,-0.058 0.13,-0.13 v -36 c 0,-0.072 -0.058,-0.13 -0.13,-0.13 h -2.87 c -0.13,0 0,0.13 0,0 V 92.26 c 0,-0.13 -0.13,0 0,0 h 2.87 c 0.072,0 0.13,-0.058 0.13,-0.13 v -36 c 0,-0.072 -0.058,-0.13 -0.13,-0.13 h -2.87 c -0.13,0 0,0.13 0,0 V 13.13 c 0,-0.072 -0.058,-0.13 -0.13,-0.13 h -70.87 c -0.13,0 0,0.13 0,0 v -2.87 c 0,-0.072 -0.058,-0.13 -0.13,-0.13 h -36 c -0.072,0 -0.13,0.058 -0.13,0.13 V 13 c 0,0.13 0.13,0 0,0 h -35.74 c -0.13,0 0,0.13 0,0 v -2.87 c 0,-0.072 -0.058,-0.13 -0.13,-0.13 h -36 c -0.072,0 -0.13,0.058 -0.13,0.13 V 13 c 0,0.13 0.13,0 0,0 h -35.74 c -0.13,0 0,0.13 0,0 v -2.87 c 0,-0.072 -0.058,-0.13 -0.13,-0.13 h -36 c -0.072,0 -0.13,0.058 -0.13,0.13 V 13 c 0,0.13 0.13,0 0,0 h -35.74 c -0.13,0 0,0.13 0,0 v -2.87 c 0,-0.072 -0.058,-0.13 -0.13,-0.13 h -36 c -0.072,0 -0.13,0.058 -0.13,0.13 V 13 c 0,0.13 0.13,0 0,0 h -35.74 c -0.13,0 0,0.13 0,0 v -2.87 c 0,-0.072 -0.058,-0.13 -0.13,-0.13 h -36 c -0.072,0 -0.13,0.058 -0.13,0.13 V 13 c 0,0.13 0.13,0 0,0 h -35.74 c -0.13,0 0,0.13 0,0 v -2.87 c 0,-0.072 -0.058,-0.13 -0.13,-0.13 h -36 c -0.072,0 -0.13,0.058 -0.13,0.13 V 13 c 0,0.13 0.13,0 0,0 h -35.74 c -0.13,0 0,0.13 0,0 v -2.87 c 0,-0.072 -0.058,-0.13 -0.13,-0.13 h -36 c -0.072,0 -0.13,0.058 -0.13,0.13 V 13 c 0,0.13 0.13,0 0,0 h -35.74 c -0.13,0 0,0.13 0,0 v -2.87 c 0,-0.072 -0.058,-0.13 -0.13,-0.13 h -36 c -0.072,0 -0.13,0.058 -0.13,0.13 V 13 c 0,0.13 0.13,0 0,0 h -35.74 c -0.13,0 0,0.13 0,0 v -2.87 c 0,-0.072 -0.058,-0.13 -0.13,-0.13 h -36 c -0.072,0 -0.13,0.058 -0.13,0.13 V 13 c 0,0.13 0.13,0 0,0 h -70.87 c -0.072,0 -0.13,0.058 -0.13,0.13 V 56 c 0,0.13 0.13,0 0,0 h -2.87 c -0.072,0 -0.13,0.058 -0.13,0.13 v 36 c 0,0.072 0.058,0.13 0.13,0.13 h 2.87 c 0.13,0 0,-0.13 0,0 V 128 c 0,0.13 0.13,0 0,0 h -2.87 c -0.072,0 -0.13,0.058 -0.13,0.13 v 36 c 0,0.072 0.058,0.13 0.13,0.13 h 2.87 c 0.13,0 0,-0.13 0,0 v 42.87 c 0,0.072 0.058,0.13 0.13,0.13 z"
       stroke="#000000"
       stroke-width="0.26"
       id="path880"
       style="stroke:#000000;stroke-width:1;stroke-miterlimit:4;stroke-dasharray:none;stroke-opacity:1" />
  </g>
  <g
     id="g4141"
     transform="matrix(1,0,0,1.4647857,-18.484657,-3.0646599)">
    <g
       id="g1526"
       transform="translate(-125.56734)">
      <g
         id="g1509"
         transform="translate(7.4083337)">
        <path
           d="m 314.37464,28.611195 v 49.643346 q 0,1.647737 0.78318,2.365981 0.4177,0.422497 0.78319,0.549245 0.36548,0.0845 2.40175,0.506996 2.50618,0.464747 2.50618,2.323734 0,1.098488 -1.35751,1.774483 -0.99203,0.507002 -3.34158,0.507002 h -1.72301 -23.28661 -1.72301 q -2.29733,0 -3.49822,-0.549257 -1.14867,-0.591486 -1.14867,-1.732228 0,-1.858987 2.50619,-2.323734 2.03628,-0.422496 2.40176,-0.506996 0.36549,-0.126748 0.73097,-0.549245 0.78318,-0.718244 0.78318,-2.365981 V 28.611195 Z m 18.06541,0 v 17.28011 q 0,1.22524 -0.88762,1.985733 -0.83539,0.760495 -2.1929,0.760495 -1.3053,0 -2.19291,-0.675995 -0.83539,-0.718244 -1.09645,-1.943485 l -0.52212,-2.577228 q -0.78319,-3.929218 -3.02832,-6.802195 -1.40973,-1.774486 -3.81148,-2.915226 v -5.112209 z m -59.2086,0 h 13.7318 v 5.112209 q -2.45398,1.14074 -3.81149,2.915226 -2.24512,2.872977 -3.0283,6.802195 l -0.52212,2.577228 q -0.26107,1.225241 -1.14867,1.943485 -0.83539,0.675995 -2.1407,0.675995 -1.35752,0 -2.24513,-0.760495 -0.83539,-0.760493 -0.83539,-1.985733 z"
           style="font-style:normal;font-variant:normal;font-weight:normal;font-stretch:normal;font-size:72px;line-height:1.25;font-family:Stencil;-inkscape-font-specification:'Stencil, Normal';font-variant-ligatures:normal;font-variant-caps:normal;font-variant-numeric:normal;font-variant-east-asian:normal;white-space:pre;fill:none;stroke:#ff0000;stroke-width:0.79375;stroke-miterlimit:4;stroke-dasharray:none;stroke-opacity:1"
           id="path967" />
        <path
           d="m 366.32575,32.033418 q -2.66282,0.760493 -3.75928,2.070233 -1.09645,1.30974 -1.09645,3.844719 v 37.771192 q 0,3.71797 1.25309,5.238957 0.99202,1.267491 3.60264,1.816736 v 4.647457 q -11.59111,-0.760491 -19.42293,-7.055687 -10.18138,-8.196434 -10.18138,-22.857065 0,-7.35144 2.66282,-13.266392 2.71504,-5.957201 7.98847,-10.097668 4.02034,-3.168724 8.66722,-4.81646 4.64688,-1.647737 10.2858,-1.858985 z m 4.28139,0 v -4.562963 q 5.63891,0.211248 10.2858,1.858985 4.69909,1.647736 8.71943,4.81646 10.65128,8.407682 10.65128,23.36406 0,14.660631 -10.18137,22.857065 -7.83183,6.33745 -19.47514,7.055687 v -4.647457 q 1.35752,-0.253499 2.08849,-0.633745 0.78318,-0.422496 1.40973,-1.182991 1.40973,-1.732235 1.40973,-5.238957 V 37.94837 q 0,-2.239233 -0.93983,-3.548971 -0.62654,-0.887244 -1.51415,-1.39424 -0.83539,-0.506996 -2.45397,-0.971741 z"
           style="font-style:normal;font-variant:normal;font-weight:normal;font-stretch:normal;font-size:72px;line-height:1.25;font-family:Stencil;-inkscape-font-specification:'Stencil, Normal';font-variant-ligatures:normal;font-variant-caps:normal;font-variant-numeric:normal;font-variant-east-asian:normal;white-space:pre;fill:none;stroke:#ff0000;stroke-width:0.79375;stroke-miterlimit:4;stroke-dasharray:none;stroke-opacity:1"
           id="path969" />
        <path
           d="m 443.07762,65.833143 -6.31766,20.448839 H 425.48213 L 408.66982,36.63863 q -0.57434,-1.689986 -1.09647,-2.281482 -0.4699,-0.591494 -1.67079,-0.971741 -2.08849,-0.675994 -2.08849,-2.239233 0,-1.225239 1.30531,-1.858984 1.30531,-0.675995 3.65486,-0.675995 h 24.43529 q 2.29734,0 3.13273,0.506996 1.09646,0.633745 1.09646,1.732237 0,1.309738 -1.82743,2.196982 -1.51415,0.718244 -1.98407,1.22524 -0.41769,0.464746 -0.41769,1.436487 0,0.464747 0.15664,0.929493 z m 4.96017,-37.221948 h 10.75571 l 12.53092,38.447188 -5.9522,19.223599 H 453.98997 L 441.82453,49.144529 Z m 25.27068,31.687243 -2.71502,-8.576681 3.81148,-12.505898 q 0.46991,-1.478738 0.46991,-2.281481 0,-1.26749 -0.88761,-2.154733 -0.8354,-0.929493 -2.81945,-1.732235 -1.30531,-0.549247 -1.82743,-1.056242 -0.46991,-0.506996 -0.46991,-1.309739 0,-1.098492 0.83539,-1.563238 0.88762,-0.506996 2.76725,-0.506996 h 12.4265 q 2.1407,0 2.9761,0.506996 0.88759,0.464746 0.88759,1.605487 0,0.675995 -0.4699,1.140741 -0.41769,0.422496 -1.46194,0.802743 -2.34955,0.844993 -3.446,1.774486 -2.40177,1.943484 -3.60264,5.619204 z"
           style="font-style:normal;font-variant:normal;font-weight:normal;font-stretch:normal;font-size:72px;line-height:1.25;font-family:Stencil;-inkscape-font-specification:'Stencil, Normal';font-variant-ligatures:normal;font-variant-caps:normal;font-variant-numeric:normal;font-variant-east-asian:normal;white-space:pre;fill:none;stroke:#ff0000;stroke-width:0.79375;stroke-miterlimit:4;stroke-dasharray:none;stroke-opacity:1"
           id="path971" />
      </g>
      <g
         id="g1515">
        <path
           d="m 570.78859,28.611195 v 4.858711 L 541.91527,86.281982 H 519.09854 V 82.09926 L 548.0763,28.611195 Z m -49.91482,0 h 22.66007 l -2.6106,4.816461 q -4.43803,0.464747 -8.14511,2.619479 -4.69909,2.703978 -6.4221,7.689438 -0.41769,1.309739 -1.04423,1.816735 -0.62656,0.506996 -1.77521,0.506996 -2.66282,0 -2.66282,-2.49273 z m 49.91482,57.670787 H 546.3533 l 2.34955,-4.224971 q 6.4221,-1.225241 9.29376,-2.830727 2.45397,-1.394239 3.96813,-3.210974 1.51415,-1.816736 3.18494,-5.450205 0.62654,-1.351989 1.20088,-1.816736 0.62655,-0.506996 1.67079,-0.506996 1.35751,0 2.03627,0.760493 0.73097,0.760495 0.73097,2.196983 z"
           style="font-style:normal;font-variant:normal;font-weight:normal;font-stretch:normal;font-size:72px;line-height:1.25;font-family:Stencil;-inkscape-font-specification:'Stencil, Normal';font-variant-ligatures:normal;font-variant-caps:normal;font-variant-numeric:normal;font-variant-east-asian:normal;white-space:pre;fill:none;stroke:#ff0000;stroke-width:0.79375;stroke-miterlimit:4;stroke-dasharray:none;stroke-opacity:1"
           id="path973" />
        <path
           d="m 604.67429,32.033418 q -2.66282,0.760493 -3.75927,2.070233 -1.09646,1.30974 -1.09646,3.844719 v 37.771192 q 0,3.71797 1.2531,5.238957 0.99203,1.267491 3.60263,1.816736 v 4.647457 q -11.5911,-0.760491 -19.42293,-7.055687 -10.18138,-8.196434 -10.18138,-22.857065 0,-7.35144 2.66283,-13.266392 2.71504,-5.957201 7.98846,-10.097668 4.02034,-3.168724 8.66723,-4.81646 4.64687,-1.647737 10.28579,-1.858985 z m 4.2814,0 v -4.562963 q 5.63892,0.211248 10.28579,1.858985 4.69909,1.647736 8.71944,4.81646 10.65128,8.407682 10.65128,23.36406 0,14.660631 -10.18138,22.857065 -7.83183,6.33745 -19.47513,7.055687 v -4.647457 q 1.35751,-0.253499 2.08848,-0.633745 0.78318,-0.422496 1.40973,-1.182991 1.40973,-1.732235 1.40973,-5.238957 V 37.94837 q 0,-2.239233 -0.93981,-3.548971 -0.62655,-0.887244 -1.51417,-1.39424 -0.83539,-0.506996 -2.45396,-0.971741 z"
           style="font-style:normal;font-variant:normal;font-weight:normal;font-stretch:normal;font-size:72px;line-height:1.25;font-family:Stencil;-inkscape-font-specification:'Stencil, Normal';font-variant-ligatures:normal;font-variant-caps:normal;font-variant-numeric:normal;font-variant-east-asian:normal;white-space:pre;fill:none;stroke:#ff0000;stroke-width:0.79375;stroke-miterlimit:4;stroke-dasharray:none;stroke-opacity:1"
           id="path975" />
        <path
           d="m 674.58639,28.611195 27.77686,39.038682 V 86.281982 H 688.10934 L 652.65727,36.849878 q -1.14867,-1.605486 -1.87963,-2.239231 -0.73098,-0.633745 -1.87965,-0.929493 l -1.98406,-0.591495 q -0.78318,-0.211248 -1.25309,-0.760494 -0.46991,-0.549245 -0.46991,-1.22524 0,-0.718244 0.46991,-1.30974 0.46991,-0.633744 1.25309,-0.887242 0.88761,-0.295748 4.80352,-0.295748 z m -21.8769,14.82963 5.53448,7.435939 V 73.52258 q 0,2.957476 1.20088,4.858711 1.25309,1.901234 3.91591,3.126474 l 1.56637,0.718245 q 1.35751,0.633744 1.35751,1.901238 0,0.971737 -0.99203,1.605477 -0.83539,0.549257 -3.446,0.549257 h -12.061 q -4.75131,0 -4.75131,-2.196989 0,-0.76049 0.46991,-1.182989 0.52212,-0.464746 2.19291,-1.225241 5.01237,-2.239231 5.01237,-8.154183 z m 49.65376,17.449107 -5.53448,-7.562687 V 41.624089 q 0,-3.548971 -1.30531,-5.407956 -1.2531,-1.901234 -4.49024,-3.253223 -1.09647,-0.422496 -1.51416,-0.887243 -0.4177,-0.506995 -0.4177,-1.26749 0,-1.14074 0.88761,-1.647736 0.93982,-0.549246 2.9761,-0.549246 h 13.05304 q 2.66282,0 3.49822,0.675995 0.88759,0.675994 0.88759,1.605487 0,0.887243 -0.52212,1.351989 -0.4699,0.422496 -2.34954,1.18299 -2.76724,1.140741 -4.17697,3.506722 -0.99204,1.732236 -0.99204,4.689711 z"
           style="font-style:normal;font-variant:normal;font-weight:normal;font-stretch:normal;font-size:72px;line-height:1.25;font-family:Stencil;-inkscape-font-specification:'Stencil, Normal';font-variant-ligatures:normal;font-variant-caps:normal;font-variant-numeric:normal;font-variant-east-asian:normal;white-space:pre;fill:none;stroke:#ff0000;stroke-width:0.79375;stroke-miterlimit:4;stroke-dasharray:none;stroke-opacity:1"
           id="path977" />
        <path
           d="m 745.33388,28.611195 v 57.670787 h -23.23443 -1.35751 q -1.87963,0 -2.92389,-0.549257 -0.99203,-0.591486 -0.99203,-1.647732 0,-1.732235 2.08849,-2.28148 1.72301,-0.464747 1.98406,-0.549246 0.31328,-0.126749 0.62656,-0.506996 0.62654,-0.675994 0.62654,-2.154732 V 36.300633 q 0,-1.478738 -0.62654,-2.154733 -0.31328,-0.380246 -0.62656,-0.464746 -0.26105,-0.126748 -1.98406,-0.591495 -2.08849,-0.549245 -2.08849,-2.281482 0,-1.056241 0.99203,-1.605486 1.04426,-0.591496 2.92389,-0.591496 h 1.35751 z m 4.64687,0 h 21.04151 v 14.956379 q 0,1.30974 -0.62654,1.901234 -0.62656,0.591496 -1.98407,0.591496 -1.14867,0 -1.67079,-0.380248 -0.52212,-0.380246 -0.99203,-1.563237 -1.98407,-4.90096 -5.84776,-7.478189 -3.8115,-2.577228 -9.92032,-3.084224 z m -0.26106,30.75775 v -4.90096 q 3.0283,-1.182991 4.49025,-2.577229 1.46193,-1.394238 2.14069,-3.71797 0.4177,-1.605486 1.09647,-2.196982 0.67876,-0.633745 1.93185,-0.633745 1.67079,0 2.29733,1.056242 0.36549,0.549245 0.36549,2.492729 v 16.09712 q 0,1.985733 -0.57434,2.746227 -0.52213,0.760494 -1.98406,0.760494 -1.20088,0 -1.87965,-0.591495 -0.67875,-0.591496 -1.09645,-1.985734 -0.8876,-2.915226 -2.55839,-4.478463 -1.61858,-1.563238 -4.22919,-2.070234 z m 0.31328,26.913037 v -4.562968 q 3.39378,-0.422497 5.5867,-1.182991 2.24513,-0.760494 4.49024,-2.323731 2.24512,-1.563237 3.55043,-3.210974 1.35751,-1.689986 2.5584,-4.436213 0.57432,-1.351989 1.20088,-1.816736 0.62654,-0.506996 1.723,-0.506996 1.46194,0 2.03627,0.718244 0.57434,0.675995 0.57434,2.40823 v 14.914135 z"
           style="font-style:normal;font-variant:normal;font-weight:normal;font-stretch:normal;font-size:72px;line-height:1.25;font-family:Stencil;-inkscape-font-specification:'Stencil, Normal';font-variant-ligatures:normal;font-variant-caps:normal;font-variant-numeric:normal;font-variant-east-asian:normal;white-space:pre;fill:none;stroke:#ff0000;stroke-width:0.79375;stroke-miterlimit:4;stroke-dasharray:none;stroke-opacity:1"
           id="path979" />
      </g>
    </g>
    <path
       id="rect4116"
       style="opacity:0.997;fill:none;fill-opacity:1;stroke:#ff0000;stroke-width:1.05833;stroke-miterlimit:4;stroke-dasharray:none;stroke-opacity:1"
       d="M 83.218179,26.210803 46.451431,63.07832 h -0.10077 l 0.05064,0.05064 -0.05064,0.05064 h 0.10077 l 36.766748,36.86752 H 103.47536 L 76.809785,73.308185 H 134.35204 V 53.051543 H 76.707982 l 26.767378,-26.84074 z" />
    <path
       id="rect4116-8"
       style="opacity:0.997;fill:none;fill-opacity:1;stroke:#ff0000;stroke-width:1.05833;stroke-miterlimit:4;stroke-dasharray:none;stroke-opacity:1"
       d="m 715.01188,26.211209 36.76675,36.867516 h 0.10077 l -0.0506,0.05064 0.0506,0.05064 h -0.10077 L 715.01188,100.04753 H 694.75472 L 721.42028,73.308591 H 663.87806 V 53.051948 h 57.64402 L 694.75472,26.211209 Z" />
  </g>
  <circle
     style="opacity:0.995;fill:none;stroke:#000000;stroke-width:1;stroke-miterlimit:4;stroke-dasharray:none"
     id="path75-1"
     cx="107.80672"
     cy="593.77936"
     r="11.59231" />
  <circle
     style="opacity:0.995;fill:none;stroke:#000000;stroke-width:1;stroke-miterlimit:4;stroke-dasharray:none"
     id="path77-6"
     cx="135.74167"
     cy="593.77936"
     r="3.6777911" />
  <circle
     style="opacity:0.995;fill:none;stroke:#000000;stroke-width:1;stroke-miterlimit:4;stroke-dasharray:none"
     id="path73-2"
     cx="76.522659"
     cy="593.77936"
     r="6.1637788" />
  <circle
     style="opacity:0.995;fill:none;stroke:#000000;stroke-width:1;stroke-miterlimit:4;stroke-dasharray:none"
     id="path73-2-4"
     cx="47.947678"
     cy="593.77936"
     r="10.431009" />
  <circle
     style="opacity:0.995;fill:none;stroke:#000000;stroke-width:1;stroke-miterlimit:4;stroke-dasharray:none"
     id="path77-6-6"
     cx="157.48456"
     cy="593.77936"
     r="3.6777911" />
  <circle
     style="opacity:0.995;fill:none;stroke:#000000;stroke-width:1;stroke-miterlimit:4;stroke-dasharray:none"
     id="path75-1-0"
     cx="105.549"
     cy="436.93188"
     r="11.59231" />
  <circle
     style="opacity:0.995;fill:none;stroke:#000000;stroke-width:1;stroke-miterlimit:4;stroke-dasharray:none"
     id="path77-6-0"
     cx="133.48396"
     cy="436.93188"
     r="3.6777911" />
  <circle
     style="opacity:0.995;fill:none;stroke:#000000;stroke-width:1;stroke-miterlimit:4;stroke-dasharray:none"
     id="path73-2-42"
     cx="74.264961"
     cy="436.93188"
     r="6.1637788" />
  <circle
     style="opacity:0.995;fill:none;stroke:#000000;stroke-width:1;stroke-miterlimit:4;stroke-dasharray:none"
     id="path73-2-4-9"
     cx="45.689949"
     cy="436.93188"
     r="10.431009" />
  <circle
     style="opacity:0.995;fill:none;stroke:#000000;stroke-width:1;stroke-miterlimit:4;stroke-dasharray:none"
     id="path77-6-6-2"
     cx="155.22685"
     cy="436.93188"
     r="3.6777911" />
</svg>
